<mxfile host="Electron" modified="2024-05-24T20:35:58.464Z" agent="Mozilla/5.0 (Windows NT 10.0; Win64; x64) AppleWebKit/537.36 (KHTML, like Gecko) draw.io/24.4.8 Chrome/124.0.6367.207 Electron/30.0.6 Safari/537.36" etag="yAT134XHTl0PUK90aucA" version="24.4.8" type="device">
  <diagram name="Страница — 1" id="Q1PTMi-Rw-wDWXn7lQtu">
    <mxGraphModel dx="1290" dy="629" grid="1" gridSize="10" guides="1" tooltips="1" connect="1" arrows="1" fold="1" page="1" pageScale="1" pageWidth="827" pageHeight="1169" math="0" shadow="0">
      <root>
        <mxCell id="0" />
        <mxCell id="1" parent="0" />
        <mxCell id="EHdvN1XWoqORUHnzP4w_-12" style="edgeStyle=orthogonalEdgeStyle;rounded=0;orthogonalLoop=1;jettySize=auto;html=1;" edge="1" parent="1" source="EHdvN1XWoqORUHnzP4w_-1" target="EHdvN1XWoqORUHnzP4w_-7">
          <mxGeometry relative="1" as="geometry" />
        </mxCell>
        <mxCell id="EHdvN1XWoqORUHnzP4w_-13" style="edgeStyle=orthogonalEdgeStyle;rounded=0;orthogonalLoop=1;jettySize=auto;html=1;entryX=0.5;entryY=0;entryDx=0;entryDy=0;" edge="1" parent="1" source="EHdvN1XWoqORUHnzP4w_-1" target="EHdvN1XWoqORUHnzP4w_-3">
          <mxGeometry relative="1" as="geometry">
            <Array as="points">
              <mxPoint x="190" y="600" />
            </Array>
          </mxGeometry>
        </mxCell>
        <mxCell id="EHdvN1XWoqORUHnzP4w_-1" value="DB_rel" style="shape=cylinder3;whiteSpace=wrap;html=1;boundedLbl=1;backgroundOutline=1;size=15;" vertex="1" parent="1">
          <mxGeometry x="60" y="560" width="60" height="80" as="geometry" />
        </mxCell>
        <mxCell id="EHdvN1XWoqORUHnzP4w_-2" value="Postgres" style="text;html=1;align=center;verticalAlign=middle;whiteSpace=wrap;rounded=0;" vertex="1" parent="1">
          <mxGeometry x="60" y="530" width="60" height="30" as="geometry" />
        </mxCell>
        <mxCell id="EHdvN1XWoqORUHnzP4w_-3" value="Table &quot;Connections&quot;" style="swimlane;whiteSpace=wrap;html=1;" vertex="1" parent="1">
          <mxGeometry x="80" y="680" width="220" height="80" as="geometry" />
        </mxCell>
        <mxCell id="EHdvN1XWoqORUHnzP4w_-4" value="+ inner_id: hashed id in our db" style="text;strokeColor=none;fillColor=none;align=left;verticalAlign=top;spacingLeft=4;spacingRight=4;overflow=hidden;rotatable=0;points=[[0,0.5],[1,0.5]];portConstraint=eastwest;whiteSpace=wrap;html=1;" vertex="1" parent="EHdvN1XWoqORUHnzP4w_-3">
          <mxGeometry y="24" width="180" height="26" as="geometry" />
        </mxCell>
        <mxCell id="EHdvN1XWoqORUHnzP4w_-5" value="+ telegram_id: user&#39;s id (may change)" style="text;strokeColor=none;fillColor=none;align=left;verticalAlign=top;spacingLeft=4;spacingRight=4;overflow=hidden;rotatable=0;points=[[0,0.5],[1,0.5]];portConstraint=eastwest;whiteSpace=wrap;html=1;" vertex="1" parent="EHdvN1XWoqORUHnzP4w_-3">
          <mxGeometry y="50" width="240" height="26" as="geometry" />
        </mxCell>
        <mxCell id="EHdvN1XWoqORUHnzP4w_-7" value="Table &quot;Articles&quot;" style="swimlane;whiteSpace=wrap;html=1;" vertex="1" parent="1">
          <mxGeometry x="350" y="680" width="230" height="150" as="geometry" />
        </mxCell>
        <mxCell id="EHdvN1XWoqORUHnzP4w_-8" value="+ user_id: hashed id in our db" style="text;strokeColor=none;fillColor=none;align=left;verticalAlign=top;spacingLeft=4;spacingRight=4;overflow=hidden;rotatable=0;points=[[0,0.5],[1,0.5]];portConstraint=eastwest;whiteSpace=wrap;html=1;" vertex="1" parent="EHdvN1XWoqORUHnzP4w_-7">
          <mxGeometry y="24" width="180" height="26" as="geometry" />
        </mxCell>
        <mxCell id="EHdvN1XWoqORUHnzP4w_-9" value="+ date: when this task must be done&amp;nbsp;" style="text;strokeColor=none;fillColor=none;align=left;verticalAlign=top;spacingLeft=4;spacingRight=4;overflow=hidden;rotatable=0;points=[[0,0.5],[1,0.5]];portConstraint=eastwest;whiteSpace=wrap;html=1;" vertex="1" parent="EHdvN1XWoqORUHnzP4w_-7">
          <mxGeometry y="50" width="230" height="26" as="geometry" />
        </mxCell>
        <mxCell id="EHdvN1XWoqORUHnzP4w_-10" value="+ status: done / in process / cancelled" style="text;strokeColor=none;fillColor=none;align=left;verticalAlign=top;spacingLeft=4;spacingRight=4;overflow=hidden;rotatable=0;points=[[0,0.5],[1,0.5]];portConstraint=eastwest;whiteSpace=wrap;html=1;" vertex="1" parent="EHdvN1XWoqORUHnzP4w_-7">
          <mxGeometry y="76" width="230" height="26" as="geometry" />
        </mxCell>
        <mxCell id="EHdvN1XWoqORUHnzP4w_-11" value="+ description: json file name with more info" style="text;strokeColor=none;fillColor=none;align=left;verticalAlign=top;spacingLeft=4;spacingRight=4;overflow=hidden;rotatable=0;points=[[0,0.5],[1,0.5]];portConstraint=eastwest;whiteSpace=wrap;html=1;" vertex="1" parent="EHdvN1XWoqORUHnzP4w_-7">
          <mxGeometry y="100" width="210" height="40" as="geometry" />
        </mxCell>
        <mxCell id="EHdvN1XWoqORUHnzP4w_-14" value="DB_nonrel" style="shape=cylinder3;whiteSpace=wrap;html=1;boundedLbl=1;backgroundOutline=1;size=15;" vertex="1" parent="1">
          <mxGeometry x="660" y="880" width="60" height="80" as="geometry" />
        </mxCell>
        <mxCell id="EHdvN1XWoqORUHnzP4w_-15" value="MongoDB" style="text;html=1;align=center;verticalAlign=middle;whiteSpace=wrap;rounded=0;" vertex="1" parent="1">
          <mxGeometry x="660" y="850" width="60" height="30" as="geometry" />
        </mxCell>
        <mxCell id="EHdvN1XWoqORUHnzP4w_-16" style="edgeStyle=orthogonalEdgeStyle;rounded=0;orthogonalLoop=1;jettySize=auto;html=1;entryX=0;entryY=0.5;entryDx=0;entryDy=0;entryPerimeter=0;" edge="1" parent="1" source="EHdvN1XWoqORUHnzP4w_-10" target="EHdvN1XWoqORUHnzP4w_-14">
          <mxGeometry relative="1" as="geometry" />
        </mxCell>
        <mxCell id="EHdvN1XWoqORUHnzP4w_-17" style="edgeStyle=orthogonalEdgeStyle;rounded=0;orthogonalLoop=1;jettySize=auto;html=1;" edge="1" parent="1" source="EHdvN1XWoqORUHnzP4w_-4" target="EHdvN1XWoqORUHnzP4w_-8">
          <mxGeometry relative="1" as="geometry" />
        </mxCell>
        <mxCell id="EHdvN1XWoqORUHnzP4w_-18" style="edgeStyle=orthogonalEdgeStyle;rounded=0;orthogonalLoop=1;jettySize=auto;html=1;entryX=1;entryY=0.5;entryDx=0;entryDy=0;" edge="1" parent="1" source="EHdvN1XWoqORUHnzP4w_-8" target="EHdvN1XWoqORUHnzP4w_-4">
          <mxGeometry relative="1" as="geometry" />
        </mxCell>
        <mxCell id="EHdvN1XWoqORUHnzP4w_-19" value="&lt;font style=&quot;font-size: 6px;&quot;&gt;primary_key&lt;/font&gt;" style="text;html=1;align=center;verticalAlign=middle;whiteSpace=wrap;rounded=0;" vertex="1" parent="1">
          <mxGeometry x="290" y="700" width="60" height="10" as="geometry" />
        </mxCell>
        <mxCell id="EHdvN1XWoqORUHnzP4w_-21" value="store data using collections formed by user and task type&amp;nbsp;" style="text;html=1;align=center;verticalAlign=middle;whiteSpace=wrap;rounded=0;" vertex="1" parent="1">
          <mxGeometry x="615" y="980" width="150" height="30" as="geometry" />
        </mxCell>
      </root>
    </mxGraphModel>
  </diagram>
</mxfile>
